<?xml version="1.0" encoding="UTF-8"?>
<svg width="63mm" height="63mm" version="1.1" viewBox="0 0 63 63" xmlns="http://www.w3.org/2000/svg" xmlns:cc="http://creativecommons.org/ns#" xmlns:dc="http://purl.org/dc/elements/1.1/" xmlns:rdf="http://www.w3.org/1999/02/22-rdf-syntax-ns#" xmlns:xlink="http://www.w3.org/1999/xlink">
 <defs>
  <linearGradient id="linearGradient899">
   <stop stop-color="#71bafc" offset="0"/>
   <stop stop-color="#71bafc" stop-opacity="0" offset="1"/>
  </linearGradient>
  <clipPath id="clipPath919">
   <path d="m292.93 149.92 34.548-19.947 49.535 49.535-19.647 34.849z" fill="url(#linearGradient923)" opacity=".5972"/>
  </clipPath>
  <linearGradient id="linearGradient923" x1="78.36" x2="126.27" y1="33.15" y2="74.012" gradientTransform="scale(3.7795)" gradientUnits="userSpaceOnUse" xlink:href="#linearGradient899"/>
  <linearGradient id="linearGradient931" x1="292.93" x2="357.37" y1="172.16" y2="172.16" gradientUnits="userSpaceOnUse" xlink:href="#linearGradient899"/>
  <linearGradient id="linearGradient931-3" x1="299.37" x2="367.89" y1="139.71" y2="205.39" gradientUnits="userSpaceOnUse">
   <stop stop-color="#abd6fd" offset="0"/>
   <stop stop-color="#abd6fd" stop-opacity="0" offset="1"/>
  </linearGradient>
  <clipPath id="clipPath919-5">
   <path d="m292.93 149.92 34.548-19.947 49.535 49.535-19.647 34.849z" fill="url(#linearGradient923)" opacity=".5972"/>
  </clipPath>
  <clipPath id="clipPath919-4">
   <path d="m292.93 149.92 34.548-19.947 49.535 49.535-19.647 34.849z" fill="url(#linearGradient923)" opacity=".5972"/>
  </clipPath>
  <clipPath id="clipPath919-4-0">
   <path d="m292.93 149.92 34.548-19.947 49.535 49.535-19.647 34.849z" fill="url(#linearGradient923)" opacity=".5972"/>
  </clipPath>
 </defs>
 <metadata>
  <rdf:RDF>
   <cc:Work rdf:about="">
    <dc:format>image/svg+xml</dc:format>
    <dc:type rdf:resource="http://purl.org/dc/dcmitype/StillImage"/>
    <dc:title/>
   </cc:Work>
  </rdf:RDF>
 </metadata>
 <g transform="translate(-35.067 -23.59)" display="none" stroke-linecap="round" stroke-linejoin="round">
  <path d="m98.067 43.269 2e-6 34.321c0 4.986-4.014 9-9 9h-45c-4.986 0-9-4.014-9-9v-45c0-4.986 4.014-9 9-9h34.321" fill="#a5d5fd" stroke-width=".26458"/>
  <path transform="matrix(.26458 0 0 .26458 3.5123 .97325)" d="m357.37 159.86 1e-5 129.72c0 18.845-15.171 34.016-34.016 34.016h-170.08c-18.845 0-34.016-15.171-34.016-34.016v-170.08c0-18.845 15.171-34.016 34.016-34.016h129.72" clip-path="url(#clipPath919)" fill="url(#linearGradient931)"/>
  <path d="m98.067 43.269h-10.679c-4.986 0-9-4.014-9-9l3e-6 -10.679" fill="#71bafc" stroke-width=".26458"/>
 </g>
 <g transform="translate(-3.5123 -.97325)" display="none" stroke-linecap="round" stroke-linejoin="round">
  <path d="m66.512 20.652v34.321c0 4.986-4.014 9-9 9h-45c-4.986 0-9-4.014-9-9v-45c0-4.986 4.014-9 9-9h34.321" fill="#7ac1fc" stroke-width=".26458"/>
  <path transform="matrix(.26458 0 0 .26458 -28.042 -21.644)" d="m357.37 159.86 1e-5 129.72c0 18.845-15.171 34.016-34.016 34.016h-170.08c-18.845 0-34.016-15.171-34.016-34.016v-170.08c0-18.845 15.171-34.016 34.016-34.016h129.72" clip-path="url(#clipPath919-5)" fill="url(#linearGradient931-3)"/>
  <path d="m66.512 20.652h-10.679c-4.986 0-9-4.014-9-9v-10.679" fill="#abd6fd" stroke-width=".26458"/>
 </g>
 <g display="none">
  <path transform="scale(.26458)" d="m34.016 0c-18.845 0-34.016 15.171-34.016 34.016v170.08c0 18.845 15.171 34.016 34.016 34.016h170.08c18.845 0 34.016-15.171 34.016-34.016v-129.72l-74.377-74.377zm84.936 66.143a51.808 52.913 0 0 1 0.10352 0 51.808 52.913 0 0 1 51.809 52.912 51.808 52.913 0 0 1-51.809 52.914 51.808 52.913 0 0 1-51.807-52.914 51.808 52.913 0 0 1 51.703-52.912z" display="inline" fill="#a5d5fd" stroke-width="0" style="paint-order:normal"/>
  <g stroke-linecap="round" stroke-linejoin="round">
   <ellipse cx="31.5" cy="31.5" rx="15" ry="15.32" fill="none" stroke="#71bafc" stroke-width="2.8" style="paint-order:normal"/>
   <path transform="matrix(.26458 0 0 .26458 -31.555 -22.617)" d="m357.37 159.86 1e-5 129.72c0 18.845-15.171 34.016-34.016 34.016h-170.08c-18.845 0-34.016-15.171-34.016-34.016v-170.08c0-18.845 15.171-34.016 34.016-34.016h129.72" clip-path="url(#clipPath919-4)" display="inline" fill="url(#linearGradient931)"/>
   <path d="m63 19.679h-10.679c-4.986 0-9-4.014-9-9l2e-6 -10.679" display="inline" fill="#71bafc" stroke-width=".26458"/>
  </g>
 </g>
 <g>
  <path d="m9 5e-7c-4.986 0-9 4.014-9 9v45c0 4.986 4.014 9 9 9h45c4.986 0 9-4.014 9-9v-34.321l-19.679-19.679zm22.473 17.5a13.708 14 0 0 1 0.02739 0 13.708 14 0 0 1 13.708 14 13.708 14 0 0 1-13.708 14 13.708 14 0 0 1-13.707-14 13.708 14 0 0 1 13.68-14z" fill="#7ac1fc" stroke-width="0" style="paint-order:normal"/>
  <g stroke-linecap="round" stroke-linejoin="round">
   <ellipse cx="31.5" cy="31.5" rx="15" ry="15.32" fill="none" stroke="#abd6fd" stroke-width="2.8" style="paint-order:normal"/>
   <path transform="matrix(.26458 0 0 .26458 -31.555 -22.617)" d="m357.37 159.86 1e-5 129.72c0 18.845-15.171 34.016-34.016 34.016h-170.08c-18.845 0-34.016-15.171-34.016-34.016v-170.08c0-18.845 15.171-34.016 34.016-34.016h129.72" clip-path="url(#clipPath919-4-0)" fill="#91cbfd"/>
   <path d="m63 19.679h-10.679c-4.986 0-9-4.014-9-9l2e-6 -10.679" fill="#abd6fd" stroke-width=".26458"/>
  </g>
 </g>
</svg>
